<?xml version="1.0" encoding="UTF-8" standalone="no"?>
<!DOCTYPE svg PUBLIC "-//W3C//DTD SVG 1.1//EN" "http://www.w3.org/Graphics/SVG/1.1/DTD/svg11.dtd">
<svg width="100%" height="100%" viewBox="0 0 512 512" version="1.1" xmlns="http://www.w3.org/2000/svg" xmlns:xlink="http://www.w3.org/1999/xlink" xml:space="preserve" xmlns:serif="http://www.serif.com/" style="fill-rule:evenodd;clip-rule:evenodd;stroke-linejoin:round;stroke-miterlimit:2;">
    <g id="Layer_18">
        <path d="M464,136L456,136L456,112C456,107.611 452.389,104 448,104L440,104L440,80C440,75.611 436.389,72 432,72L384,72C379.611,72 376,75.611 376,80L376,104L368,104C363.611,104 360,107.611 360,112L360,136L299.28,136L269.68,106.32C268.171,104.823 266.126,103.988 264,104L48,104C26.057,104 8,122.057 8,144L8,400C8,421.943 26.057,440 48,440L464,440C485.943,440 504,421.943 504,400L504,176C504,154.057 485.943,136 464,136ZM392,88L424,88L424,104L392,104L392,88ZM376,120L440,120L440,136L376,136L376,120ZM48,120L260.72,120L290.32,149.68C291.829,151.177 293.874,152.012 296,152L464,152C477.166,152 488,162.834 488,176L488,216L352,216C329.473,185.625 293.817,167.677 256,167.677C218.183,167.677 182.527,185.625 160,216L24,216L24,144C24,130.834 34.834,120 48,120ZM152,288C152,230.947 198.947,184 256,184C313.053,184 360,230.947 360,288C360,345.053 313.053,392 256,392C198.947,392 152,345.053 152,288ZM160,360L24,360L24,232L149.92,232C128.109,272.919 132.053,323 160,360ZM376,288C376.026,268.475 371.245,249.24 362.08,232L488,232L488,360L352,360C367.623,339.257 376.052,313.968 376,288ZM464,424L48,424C34.834,424 24,413.166 24,400L24,376L174.72,376C220.25,418.443 291.75,418.443 337.28,376L488,376L488,400C488,413.166 477.166,424 464,424Z" style="fill:url(#_Linear1);fill-rule:nonzero;"/>
        <path d="M256,376C304.275,376 344,336.275 344,288C344,239.725 304.275,200 256,200C207.725,200 168,239.725 168,288C168,336.275 207.725,376 256,376ZM256,216C295.498,216 328,248.502 328,288C328,327.498 295.498,360 256,360C216.502,360 184,327.498 184,288C184,248.502 216.502,216 256,216Z" style="fill:url(#_Linear2);fill-rule:nonzero;"/>
        <g transform="matrix(1,0,0,1,-6,0)">
            <path d="M48,200L112,200C116.389,200 120,196.389 120,192L120,144C120,139.611 116.389,136 112,136L48,136C43.611,136 40,139.611 40,144L40,192C40,196.389 43.611,200 48,200ZM56,152L104,152L104,184L56,184L56,152Z" style="fill:url(#_Linear3);fill-rule:nonzero;"/>
        </g>
        <path d="M80,264C66.834,264 56,274.834 56,288C56,301.166 66.834,312 80,312C93.166,312 104,301.166 104,288C104,274.834 93.166,264 80,264ZM80,296C75.611,296 72,292.389 72,288C72,283.611 75.611,280 80,280C84.389,280 88,283.611 88,288C88,292.389 84.389,296 80,296Z" style="fill:url(#_Linear4);fill-rule:nonzero;"/>
        <path d="M432,264C418.834,264 408,274.834 408,288C408,301.166 418.834,312 432,312C445.166,312 456,301.166 456,288C456,274.834 445.166,264 432,264ZM432,296C427.611,296 424,292.389 424,288C424,283.611 427.611,280 432,280C436.389,280 440,283.611 440,288C440,292.389 436.389,296 432,296Z" style="fill:url(#_Linear5);fill-rule:nonzero;"/>
    </g>
    <defs>
        <linearGradient id="_Linear1" x1="0" y1="0" x2="1" y2="0" gradientUnits="userSpaceOnUse" gradientTransform="matrix(512,0,0,512,0,256)"><stop offset="0" style="stop-color:rgb(197,179,113);stop-opacity:1"/><stop offset="1" style="stop-color:rgb(91,68,19);stop-opacity:1"/></linearGradient>
        <linearGradient id="_Linear2" x1="0" y1="0" x2="1" y2="0" gradientUnits="userSpaceOnUse" gradientTransform="matrix(512,0,0,512,0,256)"><stop offset="0" style="stop-color:rgb(197,179,113);stop-opacity:1"/><stop offset="1" style="stop-color:rgb(91,68,19);stop-opacity:1"/></linearGradient>
        <linearGradient id="_Linear3" x1="0" y1="0" x2="1" y2="0" gradientUnits="userSpaceOnUse" gradientTransform="matrix(512,0,0,512,6,256)"><stop offset="0" style="stop-color:rgb(197,179,113);stop-opacity:1"/><stop offset="1" style="stop-color:rgb(91,68,19);stop-opacity:1"/></linearGradient>
        <linearGradient id="_Linear4" x1="0" y1="0" x2="1" y2="0" gradientUnits="userSpaceOnUse" gradientTransform="matrix(512,0,0,512,0,256)"><stop offset="0" style="stop-color:rgb(197,179,113);stop-opacity:1"/><stop offset="1" style="stop-color:rgb(91,68,19);stop-opacity:1"/></linearGradient>
        <linearGradient id="_Linear5" x1="0" y1="0" x2="1" y2="0" gradientUnits="userSpaceOnUse" gradientTransform="matrix(512,0,0,512,0,256)"><stop offset="0" style="stop-color:rgb(197,179,113);stop-opacity:1"/><stop offset="1" style="stop-color:rgb(91,68,19);stop-opacity:1"/></linearGradient>
    </defs>
</svg>
