<?xml version="1.0" encoding="UTF-8" standalone="no"?>
<!DOCTYPE svg PUBLIC "-//W3C//DTD SVG 1.1//EN" "http://www.w3.org/Graphics/SVG/1.1/DTD/svg11.dtd">
<svg width="100%" height="100%" viewBox="0 0 513 513" version="1.1" xmlns="http://www.w3.org/2000/svg" xmlns:xlink="http://www.w3.org/1999/xlink" xml:space="preserve" xmlns:serif="http://www.serif.com/" style="fill-rule:evenodd;clip-rule:evenodd;stroke-linejoin:round;stroke-miterlimit:2;">
    <g>
        <g>
            <path d="M481.086,188.037C477.632,185.975 473.349,185.878 469.808,187.784L395.907,227.561L395.907,193.474C395.907,187.162 390.789,182.045 384.479,182.045L365.893,182.045C389.072,163.246 403.917,134.552 403.917,102.451C403.918,45.96 357.958,0 301.465,0C253.247,0 212.708,33.487 201.867,78.424C187.685,61.312 166.28,50.392 142.37,50.392C99.77,50.392 65.114,85.049 65.114,127.648C65.114,148.847 73.7,168.074 87.573,182.048L77.138,182.048C70.826,182.048 65.709,187.165 65.709,193.477L65.709,245.356L36.776,245.356C30.464,245.356 25.347,250.473 25.347,256.785L25.347,301.729C25.347,308.041 30.464,313.158 36.776,313.158L65.708,313.158L65.708,365.037C65.708,371.349 70.825,376.466 77.137,376.466L211.962,376.466L150.016,495.291C147.098,500.887 149.27,507.79 154.867,510.708C156.555,511.588 158.361,512.005 160.14,512.005C164.263,512.005 168.245,509.766 170.283,505.858L230.806,389.76L291.33,505.858C293.368,509.768 297.351,512.005 301.474,512.005C303.253,512.005 305.06,511.588 306.747,510.708C312.344,507.79 314.516,500.887 311.597,495.291L249.651,376.466L384.478,376.466C390.789,376.466 395.907,371.349 395.907,365.037L395.907,330.949L469.808,370.726C471.502,371.637 473.363,372.091 475.224,372.091C477.254,372.091 479.283,371.55 481.086,370.474C484.54,368.411 486.653,364.685 486.653,360.663L486.653,197.848C486.653,193.825 484.54,190.1 481.086,188.037ZM65.709,290.297L48.205,290.297L48.205,268.21L65.709,268.21L65.709,290.297ZM301.465,22.857C345.353,22.857 381.06,58.563 381.06,102.452C381.06,146.341 345.354,182.046 301.465,182.046C257.577,182.046 221.871,146.34 221.871,102.452C221.872,58.564 257.578,22.857 301.465,22.857ZM214.192,156.054C220.296,165.958 228.039,174.747 237.039,182.046L197.167,182.046C204.476,174.684 210.3,165.855 214.192,156.054ZM142.37,73.248C172.365,73.248 196.769,97.651 196.769,127.647C196.769,157.643 172.366,182.047 142.37,182.047C112.375,182.047 87.971,157.644 87.971,127.647C87.972,97.651 112.375,73.248 142.37,73.248ZM373.05,204.902L373.05,353.604L88.566,353.604L88.566,204.902L373.05,204.902ZM463.796,341.529L395.907,304.987L395.907,253.519L463.796,216.977L463.796,341.529Z" style="fill:url(#_Linear1);fill-rule:nonzero;"/>
        </g>
    </g>
    <g>
        <g>
            <path d="M142.37,92.931C123.227,92.931 107.654,108.505 107.654,127.647C107.654,146.79 123.228,162.363 142.37,162.363C161.513,162.363 177.086,146.789 177.086,127.647C177.087,108.505 161.513,92.931 142.37,92.931ZM142.37,141.791C134.57,141.791 128.225,135.446 128.225,127.646C128.225,119.846 134.57,113.501 142.37,113.501C150.17,113.501 156.515,119.846 156.515,127.646C156.515,135.446 150.169,141.791 142.37,141.791Z" style="fill:url(#_Linear2);fill-rule:nonzero;"/>
        </g>
    </g>
    <g>
        <g>
            <path d="M301.465,52.595C273.974,52.595 251.609,74.961 251.609,102.452C251.609,129.942 273.974,152.308 301.465,152.308C328.956,152.308 351.321,129.942 351.321,102.452C351.321,74.961 328.957,52.595 301.465,52.595ZM301.465,129.451C286.578,129.451 274.466,117.339 274.466,102.452C274.466,87.565 286.578,75.452 301.465,75.452C316.352,75.452 328.464,87.564 328.464,102.452C328.464,117.34 316.352,129.451 301.465,129.451Z" style="fill:url(#_Linear3);fill-rule:nonzero;"/>
        </g>
    </g>
    <g>
        <g>
            <path d="M264.593,238.137L140.333,238.137C134.336,238.137 129.476,242.998 129.476,248.994L129.476,309.513C129.476,315.51 134.337,320.37 140.333,320.37L264.593,320.37C270.59,320.37 275.45,315.509 275.45,309.513L275.45,248.994C275.45,242.999 270.589,238.137 264.593,238.137ZM253.736,298.656L151.19,298.656L151.19,259.852L253.736,259.852L253.736,298.656Z" style="fill:url(#_Linear4);fill-rule:nonzero;"/>
        </g>
    </g>
    <g>
        <g>
            <circle cx="324.536" cy="260.422" r="11.429" style="fill:url(#_Linear5);"/>
        </g>
    </g>
    <g>
        <g>
            <circle cx="324.536" cy="298.079" r="11.429" style="fill:url(#_Linear6);"/>
        </g>
    </g>
    <defs>
        <linearGradient id="_Linear1" x1="0" y1="0" x2="1" y2="0" gradientUnits="userSpaceOnUse" gradientTransform="matrix(512.001,0.002,-0.002,512.001,0,256)"><stop offset="0" style="stop-color:rgb(197,179,113);stop-opacity:1"/><stop offset="0.41" style="stop-color:rgb(144,124,66);stop-opacity:1"/><stop offset="1" style="stop-color:rgb(91,68,19);stop-opacity:1"/></linearGradient>
        <linearGradient id="_Linear2" x1="0" y1="0" x2="1" y2="0" gradientUnits="userSpaceOnUse" gradientTransform="matrix(512.001,0.002,-0.002,512.001,0,256)"><stop offset="0" style="stop-color:rgb(197,179,113);stop-opacity:1"/><stop offset="0.41" style="stop-color:rgb(144,124,66);stop-opacity:1"/><stop offset="1" style="stop-color:rgb(91,68,19);stop-opacity:1"/></linearGradient>
        <linearGradient id="_Linear3" x1="0" y1="0" x2="1" y2="0" gradientUnits="userSpaceOnUse" gradientTransform="matrix(512.001,0.002,-0.002,512.001,0,256)"><stop offset="0" style="stop-color:rgb(197,179,113);stop-opacity:1"/><stop offset="0.41" style="stop-color:rgb(144,124,66);stop-opacity:1"/><stop offset="1" style="stop-color:rgb(91,68,19);stop-opacity:1"/></linearGradient>
        <linearGradient id="_Linear4" x1="0" y1="0" x2="1" y2="0" gradientUnits="userSpaceOnUse" gradientTransform="matrix(512.001,0.002,-0.002,512.001,0,256)"><stop offset="0" style="stop-color:rgb(197,179,113);stop-opacity:1"/><stop offset="0.41" style="stop-color:rgb(144,124,66);stop-opacity:1"/><stop offset="1" style="stop-color:rgb(91,68,19);stop-opacity:1"/></linearGradient>
        <linearGradient id="_Linear5" x1="0" y1="0" x2="1" y2="0" gradientUnits="userSpaceOnUse" gradientTransform="matrix(512.001,0.002,-0.002,512.001,0,256)"><stop offset="0" style="stop-color:rgb(197,179,113);stop-opacity:1"/><stop offset="0.41" style="stop-color:rgb(144,124,66);stop-opacity:1"/><stop offset="1" style="stop-color:rgb(91,68,19);stop-opacity:1"/></linearGradient>
        <linearGradient id="_Linear6" x1="0" y1="0" x2="1" y2="0" gradientUnits="userSpaceOnUse" gradientTransform="matrix(512.001,0.002,-0.002,512.001,0,256)"><stop offset="0" style="stop-color:rgb(197,179,113);stop-opacity:1"/><stop offset="0.41" style="stop-color:rgb(144,124,66);stop-opacity:1"/><stop offset="1" style="stop-color:rgb(91,68,19);stop-opacity:1"/></linearGradient>
    </defs>
</svg>
