<?xml version="1.0" encoding="UTF-8" standalone="no"?>
<!DOCTYPE svg PUBLIC "-//W3C//DTD SVG 1.1//EN" "http://www.w3.org/Graphics/SVG/1.1/DTD/svg11.dtd">
<svg width="100%" height="100%" viewBox="0 0 512 512" version="1.1" xmlns="http://www.w3.org/2000/svg" xmlns:xlink="http://www.w3.org/1999/xlink" xml:space="preserve" xmlns:serif="http://www.serif.com/" style="fill-rule:evenodd;clip-rule:evenodd;stroke-linejoin:round;stroke-miterlimit:2;">
    <g>
        <path d="M471.59,206.676L130.418,206.676L458.117,111.746C460.664,111.008 462.813,109.285 464.094,106.965C465.375,104.641 465.68,101.906 464.941,99.359L447.793,40.16C440.941,16.516 418.926,0 394.254,0C389.055,0 383.875,0.738 378.852,2.191L71.176,91.32C56.945,95.441 45.152,104.902 37.961,117.953C30.773,131.004 29.086,146.031 33.207,160.258L49.961,218.094L49.961,456.348C49.961,487.035 74.926,512 105.609,512L225.773,512C231.297,512 235.773,507.523 235.773,502C235.773,496.477 231.297,492 225.773,492L105.613,492C85.953,492 69.961,476.008 69.961,456.348L69.961,320.262L461.59,320.262L461.59,456.348C461.59,476.008 445.598,492 425.938,492L305.773,492C300.254,492 295.773,496.477 295.773,502C295.773,507.523 300.254,512 305.773,512L425.938,512C456.625,512 481.59,487.035 481.59,456.348L481.59,216.676C481.59,211.152 477.113,206.676 471.59,206.676ZM295.258,300.262L337.746,226.676L393.008,226.676L350.523,300.262L295.258,300.262ZM216.898,300.262L259.387,226.676L314.648,226.676L272.164,300.262L216.898,300.262ZM138.543,300.262L181.027,226.676L236.293,226.676L193.805,300.262L138.543,300.262ZM175.723,170.805L104.574,102.469L157.883,87.027C158.258,87.574 158.695,88.09 159.195,88.57L230.344,156.906L177.035,172.348C176.66,171.801 176.219,171.281 175.723,170.805ZM309.723,44.965L380.871,113.301L327.563,128.742C327.188,128.195 326.75,127.676 326.25,127.199L255.102,58.863L308.41,43.422C308.785,43.969 309.223,44.484 309.723,44.965ZM234.457,66.77L305.605,135.102L252.297,150.547C251.922,150 251.484,149.48 250.984,149.004L179.836,80.668L233.145,65.227C233.523,65.77 233.961,66.289 234.457,66.77ZM384.418,21.402C387.629,20.473 390.938,20 394.254,20C410.078,20 424.191,30.578 428.582,45.727L442.949,95.316L402.828,106.937C402.449,106.391 402.012,105.875 401.512,105.395L330.367,37.062L384.418,21.402ZM55.48,127.602C60.09,119.23 67.641,113.168 76.742,110.531L82.617,108.828C82.996,109.375 83.434,109.895 83.93,110.371L155.078,178.707L66.785,204.285L52.418,154.695C49.781,145.598 50.871,135.977 55.48,127.602ZM69.961,226.676L157.934,226.676L115.449,300.262L69.961,300.262L69.961,226.676ZM373.617,300.262L416.102,226.676L461.59,226.676L461.59,300.262L373.617,300.262Z" style="fill:url(#_Linear1);"/>
        <path d="M334.922,405.113C334.922,401.539 333.016,398.238 329.922,396.453L242.066,345.73C238.973,343.945 235.16,343.945 232.066,345.73C228.973,347.516 227.066,350.816 227.066,354.391L227.066,455.836C227.066,459.406 228.973,462.707 232.066,464.492C233.613,465.387 235.34,465.836 237.066,465.836C238.793,465.836 240.52,465.387 242.066,464.492L329.922,413.773C333.016,411.988 334.922,408.688 334.922,405.113ZM247.066,438.516L247.066,371.711L304.922,405.113L247.066,438.516Z" style="fill:url(#_Linear2);"/>
        <path d="M265.773,492C260.266,492 255.773,496.492 255.773,502C255.773,507.508 260.266,512 265.773,512C271.285,512 275.773,507.508 275.773,502C275.773,496.492 271.285,492 265.773,492Z" style="fill:url(#_Linear3);"/>
    </g>
    <defs>
        <linearGradient id="_Linear1" x1="0" y1="0" x2="1" y2="0" gradientUnits="userSpaceOnUse" gradientTransform="matrix(512,7.46875,-7.46875,512,0,256)"><stop offset="0" style="stop-color:rgb(197,179,113);stop-opacity:1"/><stop offset="1" style="stop-color:rgb(91,68,19);stop-opacity:1"/></linearGradient>
        <linearGradient id="_Linear2" x1="0" y1="0" x2="1" y2="0" gradientUnits="userSpaceOnUse" gradientTransform="matrix(512,7.46875,-7.46875,512,0,256)"><stop offset="0" style="stop-color:rgb(197,179,113);stop-opacity:1"/><stop offset="1" style="stop-color:rgb(91,68,19);stop-opacity:1"/></linearGradient>
        <linearGradient id="_Linear3" x1="0" y1="0" x2="1" y2="0" gradientUnits="userSpaceOnUse" gradientTransform="matrix(512,7.46875,-7.46875,512,0,256)"><stop offset="0" style="stop-color:rgb(197,179,113);stop-opacity:1"/><stop offset="1" style="stop-color:rgb(91,68,19);stop-opacity:1"/></linearGradient>
    </defs>
</svg>
